<?xml version="1.0" encoding="UTF-8" standalone="no"?>
<svg xmlns="http://www.w3.org/2000/svg"
     contentScriptType="application/ecmascript" contentStyleType="text/css" height="1137px" preserveAspectRatio="none"
     style="width:698px;height:1137px;" version="1.1" viewBox="0 0 698 1137" width="698px" zoomAndPan="magnify">
    <defs>
        <filter height="300%" id="f88ldo4231dfw" width="300%" x="-1" y="-1">
            <feGaussianBlur result="blurOut" stdDeviation="2.0"/>
            <feColorMatrix in="blurOut" result="blurOut2" type="matrix"
                           values="0 0 0 0 0 0 0 0 0 0 0 0 0 0 0 0 0 0 .4 0"/>
            <feOffset dx="4.0" dy="4.0" in="blurOut2" result="blurOut3"/>
            <feBlend in="SourceGraphic" in2="blurOut3" mode="normal"/>
        </filter>
    </defs>
    <g><!--MD5=[3e81cc6ee7da4fa8b6adc12b329096f6]
cluster util-->
        <polygon fill="#FFFFFF" filter="url(#f88ldo4231dfw)"
                 points="393,919.5,421,919.5,428,943.1094,595,943.1094,595,1088.5,393,1088.5,393,919.5"
                 style="stroke:#000000;stroke-width:1.5;"/>
        <line style="stroke:#000000;stroke-width:1.5;" x1="393" x2="428" y1="943.1094" y2="943.1094"/>
        <text fill="#000000" font-family="sans-serif" font-size="14" font-weight="bold" lengthAdjust="spacing"
              textLength="22" x="397" y="936.0332">util
        </text><!--MD5=[25978a4fff2e3f143e96a46d7bb4290d]
cluster actor.intermediate-->
        <polygon fill="#FFFFFF" filter="url(#f88ldo4231dfw)"
                 points="16,6,151,6,158,29.6094,487,29.6094,487,845,16,845,16,6"
                 style="stroke:#000000;stroke-width:1.5;"/>
        <line style="stroke:#000000;stroke-width:1.5;" x1="16" x2="158" y1="29.6094" y2="29.6094"/>
        <text fill="#000000" font-family="sans-serif" font-size="14" font-weight="bold" lengthAdjust="spacing"
              textLength="129" x="20" y="22.5332">actor.intermediate
        </text><!--MD5=[5d4cd377749310b66bf14896f5cd8d9b]
cluster model-->
        <polygon fill="#FFFFFF" filter="url(#f88ldo4231dfw)"
                 points="32,878,81,878,88,901.6094,328,901.6094,328,1130,32,1130,32,878"
                 style="stroke:#000000;stroke-width:1.5;"/>
        <line style="stroke:#000000;stroke-width:1.5;" x1="32" x2="88" y1="901.6094" y2="901.6094"/>
        <text fill="#000000" font-family="sans-serif" font-size="14" font-weight="bold" lengthAdjust="spacing"
              textLength="43" x="36" y="894.5332">model
        </text><!--MD5=[a813df4c85b388216b83cdbb1b1c209c]
class util.Config-->
        <rect codeLine="1" fill="#FEFECE" filter="url(#f88ldo4231dfw)" height="117.1797" id="util.Config"
              style="stroke:#A80036;stroke-width:1.5;" width="169" x="409.5" y="955.5"/>
        <ellipse cx="471.75" cy="971.5" fill="#ADD1B2" rx="11" ry="11" style="stroke:#A80036;stroke-width:1.0;"/>
        <path d="M473.75,968 Q473.9531,967.5 474.1875,967.25 Q474.4219,967 474.6875,967 Q475.1563,967 475.4531,967.2813 Q475.75,967.5625 475.75,968.2188 L475.75,969.7813 Q475.75,970.4375 475.4688,970.7188 Q475.1875,971 474.75,971 Q474.3594,971 474.1094,970.8281 Q473.8594,970.6563 473.75,970.2031 Q473.7031,969.8906 473.5313,969.7188 Q473.2188,969.3906 472.6563,969.2031 Q472.0938,969 471.5313,969 Q470.8281,969 470.2344,969.2813 Q469.6563,969.5625 469.2031,970.1875 Q468.75,970.8125 468.75,971.6719 L468.75,972.5938 Q468.75,973.625 469.5938,974.3125 Q470.4375,975 471.9375,975 Q472.8281,975 473.4531,974.7969 Q473.8125,974.6875 474.2188,974.3281 Q474.4844,974.125 474.625,974.0625 Q474.7656,974 474.9375,974 Q475.2656,974 475.5,974.2656 Q475.75,974.5156 475.75,974.875 Q475.75,975.2188 475.4063,975.625 Q474.9063,976.2188 474.1094,976.5469 Q473.0625,977 471.7813,977 Q470.2813,977 469.0781,976.4063 Q468.1094,975.9375 467.4219,974.9219 Q466.75,973.9063 466.75,972.7031 L466.75,971.6094 Q466.75,970.3594 467.3438,969.2656 Q467.9531,968.1719 469,967.5938 Q470.0625,967 471.25,967 Q471.9688,967 472.5938,967.25 Q473.2188,967.5 473.75,968 Z "
              fill="#000000"/>
        <text fill="#000000" font-family="sans-serif" font-size="12" lengthAdjust="spacing" textLength="36" x="492.25"
              y="976.4102">Config
        </text>
        <line style="stroke:#A80036;stroke-width:1.5;" x1="410.5" x2="577.5" y1="987.5" y2="987.5"/>
        <rect fill="none" height="6" style="stroke:#C82930;stroke-width:1.0;" width="6" x="417.5" y="995.5"/>
        <text fill="#000000" font-family="sans-serif" font-size="11" lengthAdjust="spacing" text-decoration="underline"
              textLength="130" x="429.5" y="1002.9189">String CONFIG_FILE_NAME
        </text>
        <rect fill="none" height="6" style="stroke:#C82930;stroke-width:1.0;" width="6" x="417.5" y="1009.3359"/>
        <text fill="#000000" font-family="sans-serif" font-size="11" lengthAdjust="spacing" textLength="101" x="429.5"
              y="1016.7549">Properties properties
        </text>
        <line style="stroke:#A80036;stroke-width:1.5;" x1="410.5" x2="577.5" y1="1023.1719" y2="1023.1719"/>
        <ellipse cx="420.5" cy="1034.1719" fill="#84BE84" rx="3" ry="3" style="stroke:#038048;stroke-width:1.0;"/>
        <text fill="#000000" font-family="sans-serif" font-size="11" lengthAdjust="spacing" textLength="39" x="429.5"
              y="1038.5908">Config()
        </text>
        <ellipse cx="420.5" cy="1048.0078" fill="#84BE84" rx="3" ry="3" style="stroke:#038048;stroke-width:1.0;"/>
        <text fill="#000000" font-family="sans-serif" font-size="11" lengthAdjust="spacing" textLength="143" x="429.5"
              y="1052.4268">String getProperty(String key)
        </text>
        <ellipse cx="420.5" cy="1061.8438" fill="#84BE84" rx="3" ry="3" style="stroke:#038048;stroke-width:1.0;"/>
        <text fill="#000000" font-family="sans-serif" font-size="11" lengthAdjust="spacing" textLength="133" x="429.5"
              y="1066.2627">int getIntProperty(String key
        </text><!--MD5=[c709b2901bae0d00d20d8e5d1204bd9a]
class actor.intermediate.Backend-->
        <rect codeLine="5" fill="#FEFECE" filter="url(#f88ldo4231dfw)" height="158.6875" id="actor.intermediate.Backend"
              style="stroke:#A80036;stroke-width:1.5;" width="208" x="233" y="670"/>
        <ellipse cx="308.75" cy="686" fill="#ADD1B2" rx="11" ry="11" style="stroke:#A80036;stroke-width:1.0;"/>
        <path d="M310.75,682.5 Q310.9531,682 311.1875,681.75 Q311.4219,681.5 311.6875,681.5 Q312.1563,681.5 312.4531,681.7813 Q312.75,682.0625 312.75,682.7188 L312.75,684.2813 Q312.75,684.9375 312.4688,685.2188 Q312.1875,685.5 311.75,685.5 Q311.3594,685.5 311.1094,685.3281 Q310.8594,685.1563 310.75,684.7031 Q310.7031,684.3906 310.5313,684.2188 Q310.2188,683.8906 309.6563,683.7031 Q309.0938,683.5 308.5313,683.5 Q307.8281,683.5 307.2344,683.7813 Q306.6563,684.0625 306.2031,684.6875 Q305.75,685.3125 305.75,686.1719 L305.75,687.0938 Q305.75,688.125 306.5938,688.8125 Q307.4375,689.5 308.9375,689.5 Q309.8281,689.5 310.4531,689.2969 Q310.8125,689.1875 311.2188,688.8281 Q311.4844,688.625 311.625,688.5625 Q311.7656,688.5 311.9375,688.5 Q312.2656,688.5 312.5,688.7656 Q312.75,689.0156 312.75,689.375 Q312.75,689.7188 312.4063,690.125 Q311.9063,690.7188 311.1094,691.0469 Q310.0625,691.5 308.7813,691.5 Q307.2813,691.5 306.0781,690.9063 Q305.1094,690.4375 304.4219,689.4219 Q303.75,688.4063 303.75,687.2031 L303.75,686.1094 Q303.75,684.8594 304.3438,683.7656 Q304.9531,682.6719 306,682.0938 Q307.0625,681.5 308.25,681.5 Q308.9688,681.5 309.5938,681.75 Q310.2188,682 310.75,682.5 Z "
              fill="#000000"/>
        <text fill="#000000" font-family="sans-serif" font-size="12" lengthAdjust="spacing" textLength="48" x="329.25"
              y="690.9102">Backend
        </text>
        <line style="stroke:#A80036;stroke-width:1.5;" x1="234" x2="440" y1="702" y2="702"/>
        <rect fill="none" height="6" style="stroke:#C82930;stroke-width:1.0;" width="6" x="241" y="710"/>
        <text fill="#000000" font-family="sans-serif" font-size="11" lengthAdjust="spacing" textLength="64" x="253"
              y="717.4189">Config config
        </text>
        <rect fill="none" height="6" style="stroke:#C82930;stroke-width:1.0;" width="6" x="241" y="723.8359"/>
        <text fill="#000000" font-family="sans-serif" font-size="11" lengthAdjust="spacing" textLength="182" x="253"
              y="731.2549">SynchronousQueue&lt;Packet&gt; packets
        </text>
        <rect fill="none" height="6" style="stroke:#C82930;stroke-width:1.0;" width="6" x="241" y="737.6719"/>
        <text fill="#000000" font-family="sans-serif" font-size="11" lengthAdjust="spacing" textLength="67" x="253"
              y="745.0908">Logger logger
        </text>
        <rect fill="none" height="6" style="stroke:#C82930;stroke-width:1.0;" width="6" x="241" y="751.5078"/>
        <text fill="#000000" font-family="sans-serif" font-size="11" lengthAdjust="spacing" textLength="57" x="253"
              y="758.9268">boolean run
        </text>
        <line style="stroke:#A80036;stroke-width:1.5;" x1="234" x2="440" y1="765.3438" y2="765.3438"/>
        <ellipse cx="244" cy="776.3438" fill="#84BE84" rx="3" ry="3" style="stroke:#038048;stroke-width:1.0;"/>
        <text fill="#000000" font-family="sans-serif" font-size="11" lengthAdjust="spacing" textLength="114" x="253"
              y="780.7627">Backend(Config config)
        </text>
        <ellipse cx="244" cy="790.1797" fill="#84BE84" rx="3" ry="3" style="stroke:#038048;stroke-width:1.0;"/>
        <text fill="#000000" font-family="sans-serif" font-size="11" lengthAdjust="spacing" textLength="130" x="253"
              y="794.5986">void handle(Packet packet)
        </text>
        <ellipse cx="244" cy="804.0156" fill="#84BE84" rx="3" ry="3" style="stroke:#038048;stroke-width:1.0;"/>
        <text fill="#000000" font-family="sans-serif" font-size="11" lengthAdjust="spacing" textLength="80" x="253"
              y="808.4346">void shutdown()
        </text>
        <ellipse cx="244" cy="817.8516" fill="#84BE84" rx="3" ry="3" style="stroke:#038048;stroke-width:1.0;"/>
        <text fill="#000000" font-family="sans-serif" font-size="11" lengthAdjust="spacing" textLength="47" x="253"
              y="822.2705">void run()
        </text><!--MD5=[6ca3a40013fc5d1bb050092725baeed9]
class actor.intermediate.LoadBalancer-->
        <rect codeLine="15" fill="#FEFECE" filter="url(#f88ldo4231dfw)" height="144.8516"
              id="actor.intermediate.LoadBalancer" style="stroke:#A80036;stroke-width:1.5;" width="221" x="129.5"
              y="447"/>
        <ellipse cx="197.25" cy="463" fill="#ADD1B2" rx="11" ry="11" style="stroke:#A80036;stroke-width:1.0;"/>
        <path d="M199.25,459.5 Q199.4531,459 199.6875,458.75 Q199.9219,458.5 200.1875,458.5 Q200.6563,458.5 200.9531,458.7813 Q201.25,459.0625 201.25,459.7188 L201.25,461.2813 Q201.25,461.9375 200.9688,462.2188 Q200.6875,462.5 200.25,462.5 Q199.8594,462.5 199.6094,462.3281 Q199.3594,462.1563 199.25,461.7031 Q199.2031,461.3906 199.0313,461.2188 Q198.7188,460.8906 198.1563,460.7031 Q197.5938,460.5 197.0313,460.5 Q196.3281,460.5 195.7344,460.7813 Q195.1563,461.0625 194.7031,461.6875 Q194.25,462.3125 194.25,463.1719 L194.25,464.0938 Q194.25,465.125 195.0938,465.8125 Q195.9375,466.5 197.4375,466.5 Q198.3281,466.5 198.9531,466.2969 Q199.3125,466.1875 199.7188,465.8281 Q199.9844,465.625 200.125,465.5625 Q200.2656,465.5 200.4375,465.5 Q200.7656,465.5 201,465.7656 Q201.25,466.0156 201.25,466.375 Q201.25,466.7188 200.9063,467.125 Q200.4063,467.7188 199.6094,468.0469 Q198.5625,468.5 197.2813,468.5 Q195.7813,468.5 194.5781,467.9063 Q193.6094,467.4375 192.9219,466.4219 Q192.25,465.4063 192.25,464.2031 L192.25,463.1094 Q192.25,461.8594 192.8438,460.7656 Q193.4531,459.6719 194.5,459.0938 Q195.5625,458.5 196.75,458.5 Q197.4688,458.5 198.0938,458.75 Q198.7188,459 199.25,459.5 Z "
              fill="#000000"/>
        <text fill="#000000" font-family="sans-serif" font-size="12" lengthAdjust="spacing" textLength="77" x="217.75"
              y="467.9102">LoadBalancer
        </text>
        <line style="stroke:#A80036;stroke-width:1.5;" x1="130.5" x2="349.5" y1="479" y2="479"/>
        <rect fill="none" height="6" style="stroke:#C82930;stroke-width:1.0;" width="6" x="137.5" y="487"/>
        <text fill="#000000" font-family="sans-serif" font-size="11" lengthAdjust="spacing" textLength="188" x="149.5"
              y="494.4189">LinkedBlockingQueue&lt;Packet&gt; packets
        </text>
        <rect fill="none" height="6" style="stroke:#C82930;stroke-width:1.0;" width="6" x="137.5" y="500.8359"/>
        <text fill="#000000" font-family="sans-serif" font-size="11" lengthAdjust="spacing" textLength="136" x="149.5"
              y="508.2549">Queue&lt;Backend&gt; backends
        </text>
        <rect fill="none" height="6" style="stroke:#C82930;stroke-width:1.0;" width="6" x="137.5" y="514.6719"/>
        <text fill="#000000" font-family="sans-serif" font-size="11" lengthAdjust="spacing" textLength="57" x="149.5"
              y="522.0908">boolean run
        </text>
        <line style="stroke:#A80036;stroke-width:1.5;" x1="130.5" x2="349.5" y1="528.5078" y2="528.5078"/>
        <ellipse cx="140.5" cy="539.5078" fill="#84BE84" rx="3" ry="3" style="stroke:#038048;stroke-width:1.0;"/>
        <text fill="#000000" font-family="sans-serif" font-size="11" lengthAdjust="spacing" textLength="195" x="149.5"
              y="543.9268">LoadBalancer(Set&lt;Backend&gt; backends)
        </text>
        <ellipse cx="140.5" cy="553.3438" fill="#84BE84" rx="3" ry="3" style="stroke:#038048;stroke-width:1.0;"/>
        <text fill="#000000" font-family="sans-serif" font-size="11" lengthAdjust="spacing" textLength="116" x="149.5"
              y="557.7627">void add(Packet packet)
        </text>
        <ellipse cx="140.5" cy="567.1797" fill="#84BE84" rx="3" ry="3" style="stroke:#038048;stroke-width:1.0;"/>
        <text fill="#000000" font-family="sans-serif" font-size="11" lengthAdjust="spacing" textLength="80" x="149.5"
              y="571.5986">void shutdown()
        </text>
        <ellipse cx="140.5" cy="581.0156" fill="#84BE84" rx="3" ry="3" style="stroke:#038048;stroke-width:1.0;"/>
        <text fill="#000000" font-family="sans-serif" font-size="11" lengthAdjust="spacing" textLength="47" x="149.5"
              y="585.4346">void run()
        </text><!--MD5=[158b96e62c213eecd68a766e45822f6c]
class actor.intermediate.Frontend-->
        <rect codeLine="24" fill="#FEFECE" filter="url(#f88ldo4231dfw)" height="172.5234"
              id="actor.intermediate.Frontend" style="stroke:#A80036;stroke-width:1.5;" width="280" x="154" y="196"/>
        <ellipse cx="265.25" cy="212" fill="#ADD1B2" rx="11" ry="11" style="stroke:#A80036;stroke-width:1.0;"/>
        <path d="M267.25,208.5 Q267.4531,208 267.6875,207.75 Q267.9219,207.5 268.1875,207.5 Q268.6563,207.5 268.9531,207.7813 Q269.25,208.0625 269.25,208.7188 L269.25,210.2813 Q269.25,210.9375 268.9688,211.2188 Q268.6875,211.5 268.25,211.5 Q267.8594,211.5 267.6094,211.3281 Q267.3594,211.1563 267.25,210.7031 Q267.2031,210.3906 267.0313,210.2188 Q266.7188,209.8906 266.1563,209.7031 Q265.5938,209.5 265.0313,209.5 Q264.3281,209.5 263.7344,209.7813 Q263.1563,210.0625 262.7031,210.6875 Q262.25,211.3125 262.25,212.1719 L262.25,213.0938 Q262.25,214.125 263.0938,214.8125 Q263.9375,215.5 265.4375,215.5 Q266.3281,215.5 266.9531,215.2969 Q267.3125,215.1875 267.7188,214.8281 Q267.9844,214.625 268.125,214.5625 Q268.2656,214.5 268.4375,214.5 Q268.7656,214.5 269,214.7656 Q269.25,215.0156 269.25,215.375 Q269.25,215.7188 268.9063,216.125 Q268.4063,216.7188 267.6094,217.0469 Q266.5625,217.5 265.2813,217.5 Q263.7813,217.5 262.5781,216.9063 Q261.6094,216.4375 260.9219,215.4219 Q260.25,214.4063 260.25,213.2031 L260.25,212.1094 Q260.25,210.8594 260.8438,209.7656 Q261.4531,208.6719 262.5,208.0938 Q263.5625,207.5 264.75,207.5 Q265.4688,207.5 266.0938,207.75 Q266.7188,208 267.25,208.5 Z "
              fill="#000000"/>
        <text fill="#000000" font-family="sans-serif" font-size="12" lengthAdjust="spacing" textLength="49" x="285.75"
              y="216.9102">Frontend
        </text>
        <line style="stroke:#A80036;stroke-width:1.5;" x1="155" x2="433" y1="228" y2="228"/>
        <rect fill="none" height="6" style="stroke:#C82930;stroke-width:1.0;" width="6" x="162" y="236"/>
        <text fill="#000000" font-family="sans-serif" font-size="11" lengthAdjust="spacing" textLength="64" x="174"
              y="243.4189">Config config
        </text>
        <rect fill="none" height="6" style="stroke:#C82930;stroke-width:1.0;" width="6" x="162" y="249.8359"/>
        <text fill="#000000" font-family="sans-serif" font-size="11" lengthAdjust="spacing" textLength="67" x="174"
              y="257.2549">Logger logger
        </text>
        <rect fill="none" height="6" style="stroke:#C82930;stroke-width:1.0;" width="6" x="162" y="263.6719"/>
        <text fill="#000000" font-family="sans-serif" font-size="11" lengthAdjust="spacing" textLength="133" x="174"
              y="271.0908">LoadBalancer loadBalancer
        </text>
        <rect fill="none" height="6" style="stroke:#C82930;stroke-width:1.0;" width="6" x="162" y="277.5078"/>
        <text fill="#000000" font-family="sans-serif" font-size="11" lengthAdjust="spacing" textLength="33" x="174"
              y="284.9268">int port
        </text>
        <rect fill="none" height="6" style="stroke:#C82930;stroke-width:1.0;" width="6" x="162" y="291.3438"/>
        <text fill="#000000" font-family="sans-serif" font-size="11" lengthAdjust="spacing" textLength="57" x="174"
              y="298.7627">boolean run
        </text>
        <line style="stroke:#A80036;stroke-width:1.5;" x1="155" x2="433" y1="305.1797" y2="305.1797"/>
        <ellipse cx="165" cy="316.1797" fill="#84BE84" rx="3" ry="3" style="stroke:#038048;stroke-width:1.0;"/>
        <text fill="#000000" font-family="sans-serif" font-size="11" lengthAdjust="spacing" textLength="254" x="174"
              y="320.5986">Frontend(Config config, LoadBalancer loadBalancer)
        </text>
        <ellipse cx="165" cy="330.0156" fill="#84BE84" rx="3" ry="3" style="stroke:#038048;stroke-width:1.0;"/>
        <text fill="#000000" font-family="sans-serif" font-size="11" lengthAdjust="spacing" textLength="80" x="174"
              y="334.4346">void shutdown()
        </text>
        <ellipse cx="165" cy="343.8516" fill="#84BE84" rx="3" ry="3" style="stroke:#038048;stroke-width:1.0;"/>
        <text fill="#000000" font-family="sans-serif" font-size="11" lengthAdjust="spacing" textLength="56" x="174"
              y="348.2705">int getPort()
        </text>
        <ellipse cx="165" cy="357.6875" fill="#84BE84" rx="3" ry="3" style="stroke:#038048;stroke-width:1.0;"/>
        <text fill="#000000" font-family="sans-serif" font-size="11" lengthAdjust="spacing" textLength="47" x="174"
              y="362.1064">void run()
        </text><!--MD5=[52069bcbeea4e4a3c9de668c3c33a83b]
class actor.intermediate.Main-->
        <rect codeLine="35" fill="#FEFECE" filter="url(#f88ldo4231dfw)" height="75.6719" id="actor.intermediate.Main"
              style="stroke:#A80036;stroke-width:1.5;" width="160" x="286" y="42"/>
        <ellipse cx="348.75" cy="58" fill="#ADD1B2" rx="11" ry="11" style="stroke:#A80036;stroke-width:1.0;"/>
        <path d="M350.75,54.5 Q350.9531,54 351.1875,53.75 Q351.4219,53.5 351.6875,53.5 Q352.1563,53.5 352.4531,53.7813 Q352.75,54.0625 352.75,54.7188 L352.75,56.2813 Q352.75,56.9375 352.4688,57.2188 Q352.1875,57.5 351.75,57.5 Q351.3594,57.5 351.1094,57.3281 Q350.8594,57.1563 350.75,56.7031 Q350.7031,56.3906 350.5313,56.2188 Q350.2188,55.8906 349.6563,55.7031 Q349.0938,55.5 348.5313,55.5 Q347.8281,55.5 347.2344,55.7813 Q346.6563,56.0625 346.2031,56.6875 Q345.75,57.3125 345.75,58.1719 L345.75,59.0938 Q345.75,60.125 346.5938,60.8125 Q347.4375,61.5 348.9375,61.5 Q349.8281,61.5 350.4531,61.2969 Q350.8125,61.1875 351.2188,60.8281 Q351.4844,60.625 351.625,60.5625 Q351.7656,60.5 351.9375,60.5 Q352.2656,60.5 352.5,60.7656 Q352.75,61.0156 352.75,61.375 Q352.75,61.7188 352.4063,62.125 Q351.9063,62.7188 351.1094,63.0469 Q350.0625,63.5 348.7813,63.5 Q347.2813,63.5 346.0781,62.9063 Q345.1094,62.4375 344.4219,61.4219 Q343.75,60.4063 343.75,59.2031 L343.75,58.1094 Q343.75,56.8594 344.3438,55.7656 Q344.9531,54.6719 346,54.0938 Q347.0625,53.5 348.25,53.5 Q348.9688,53.5 349.5938,53.75 Q350.2188,54 350.75,54.5 Z "
              fill="#000000"/>
        <text fill="#000000" font-family="sans-serif" font-size="12" lengthAdjust="spacing" textLength="26" x="369.25"
              y="62.9102">Main
        </text>
        <line style="stroke:#A80036;stroke-width:1.5;" x1="287" x2="445" y1="74" y2="74"/>
        <line style="stroke:#A80036;stroke-width:1.5;" x1="287" x2="445" y1="82" y2="82"/>
        <ellipse cx="297" cy="93" fill="#84BE84" rx="3" ry="3" style="stroke:#038048;stroke-width:1.0;"/>
        <text fill="#000000" font-family="sans-serif" font-size="11" lengthAdjust="spacing" text-decoration="underline"
              textLength="134" x="306" y="97.4189">Frontend run(Config config)
        </text>
        <ellipse cx="297" cy="106.8359" fill="#84BE84" rx="3" ry="3" style="stroke:#038048;stroke-width:1.0;"/>
        <text fill="#000000" font-family="sans-serif" font-size="11" lengthAdjust="spacing" text-decoration="underline"
              textLength="112" x="306" y="111.2549">void main(String[] args)
        </text><!--MD5=[ac83bc419c6b56a25f2a64a1d675da41]
class model.Packet-->
        <rect codeLine="40" fill="#FEFECE" filter="url(#f88ldo4231dfw)" height="200.1953" id="model.Packet"
              style="stroke:#A80036;stroke-width:1.5;" width="264" x="48" y="914"/>
        <ellipse cx="157.25" cy="930" fill="#ADD1B2" rx="11" ry="11" style="stroke:#A80036;stroke-width:1.0;"/>
        <path d="M159.25,926.5 Q159.4531,926 159.6875,925.75 Q159.9219,925.5 160.1875,925.5 Q160.6563,925.5 160.9531,925.7813 Q161.25,926.0625 161.25,926.7188 L161.25,928.2813 Q161.25,928.9375 160.9688,929.2188 Q160.6875,929.5 160.25,929.5 Q159.8594,929.5 159.6094,929.3281 Q159.3594,929.1563 159.25,928.7031 Q159.2031,928.3906 159.0313,928.2188 Q158.7188,927.8906 158.1563,927.7031 Q157.5938,927.5 157.0313,927.5 Q156.3281,927.5 155.7344,927.7813 Q155.1563,928.0625 154.7031,928.6875 Q154.25,929.3125 154.25,930.1719 L154.25,931.0938 Q154.25,932.125 155.0938,932.8125 Q155.9375,933.5 157.4375,933.5 Q158.3281,933.5 158.9531,933.2969 Q159.3125,933.1875 159.7188,932.8281 Q159.9844,932.625 160.125,932.5625 Q160.2656,932.5 160.4375,932.5 Q160.7656,932.5 161,932.7656 Q161.25,933.0156 161.25,933.375 Q161.25,933.7188 160.9063,934.125 Q160.4063,934.7188 159.6094,935.0469 Q158.5625,935.5 157.2813,935.5 Q155.7813,935.5 154.5781,934.9063 Q153.6094,934.4375 152.9219,933.4219 Q152.25,932.4063 152.25,931.2031 L152.25,930.1094 Q152.25,928.8594 152.8438,927.7656 Q153.4531,926.6719 154.5,926.0938 Q155.5625,925.5 156.75,925.5 Q157.4688,925.5 158.0938,925.75 Q158.7188,926 159.25,926.5 Z "
              fill="#000000"/>
        <text fill="#000000" font-family="sans-serif" font-size="12" lengthAdjust="spacing" textLength="37" x="177.75"
              y="934.9102">Packet
        </text>
        <line style="stroke:#A80036;stroke-width:1.5;" x1="49" x2="311" y1="946" y2="946"/>
        <rect fill="none" height="6" style="stroke:#C82930;stroke-width:1.0;" width="6" x="56" y="954"/>
        <text fill="#000000" font-family="sans-serif" font-size="11" lengthAdjust="spacing" textLength="51" x="68"
              y="961.4189">byte[] data
        </text>
        <rect fill="none" height="6" style="stroke:#C82930;stroke-width:1.0;" width="6" x="56" y="967.8359"/>
        <text fill="#000000" font-family="sans-serif" font-size="11" lengthAdjust="spacing" textLength="102" x="68"
              y="975.2549">InetAddress address
        </text>
        <rect fill="none" height="6" style="stroke:#C82930;stroke-width:1.0;" width="6" x="56" y="981.6719"/>
        <text fill="#000000" font-family="sans-serif" font-size="11" lengthAdjust="spacing" textLength="33" x="68"
              y="989.0908">int port
        </text>
        <line style="stroke:#A80036;stroke-width:1.5;" x1="49" x2="311" y1="995.5078" y2="995.5078"/>
        <ellipse cx="59" cy="1006.5078" fill="#84BE84" rx="3" ry="3" style="stroke:#038048;stroke-width:1.0;"/>
        <text fill="#000000" font-family="sans-serif" font-size="11" lengthAdjust="spacing" textLength="238" x="68"
              y="1010.9268">Packet(byte[] data, InetAddress address, int port)
        </text>
        <ellipse cx="59" cy="1020.3438" fill="#84BE84" rx="3" ry="3" style="stroke:#038048;stroke-width:1.0;"/>
        <text fill="#000000" font-family="sans-serif" font-size="11" lengthAdjust="spacing" textLength="198" x="68"
              y="1024.7627">Packet(DatagramPacket datagramPacket)
        </text>
        <ellipse cx="59" cy="1034.1797" fill="#84BE84" rx="3" ry="3" style="stroke:#038048;stroke-width:1.0;"/>
        <text fill="#000000" font-family="sans-serif" font-size="11" lengthAdjust="spacing" textLength="56" x="68"
              y="1038.5986">int getPort()
        </text>
        <ellipse cx="59" cy="1048.0156" fill="#84BE84" rx="3" ry="3" style="stroke:#038048;stroke-width:1.0;"/>
        <text fill="#000000" font-family="sans-serif" font-size="11" lengthAdjust="spacing" textLength="127" x="68"
              y="1052.4346">InetAddress getAddress()
        </text>
        <ellipse cx="59" cy="1061.8516" fill="#84BE84" rx="3" ry="3" style="stroke:#038048;stroke-width:1.0;"/>
        <text fill="#000000" font-family="sans-serif" font-size="11" lengthAdjust="spacing" textLength="75" x="68"
              y="1066.2705">byte[] getData()
        </text>
        <ellipse cx="59" cy="1075.6875" fill="#84BE84" rx="3" ry="3" style="stroke:#038048;stroke-width:1.0;"/>
        <text fill="#000000" font-family="sans-serif" font-size="11" lengthAdjust="spacing" textLength="76" x="68"
              y="1080.1064">String toString()
        </text>
        <ellipse cx="59" cy="1089.5234" fill="#84BE84" rx="3" ry="3" style="stroke:#038048;stroke-width:1.0;"/>
        <text fill="#000000" font-family="sans-serif" font-size="11" lengthAdjust="spacing" textLength="121" x="68"
              y="1093.9424">boolean equals(Object o)
        </text>
        <ellipse cx="59" cy="1103.3594" fill="#84BE84" rx="3" ry="3" style="stroke:#038048;stroke-width:1.0;"/>
        <text fill="#000000" font-family="sans-serif" font-size="11" lengthAdjust="spacing" textLength="71" x="68"
              y="1107.7783">int hashCode()
        </text><!--MD5=[a33c7f85426c28ff4365f0118c2ee2d7]
link actor.intermediate.Main to actor.intermediate.Backend-->
        <path codeLine="54"
              d="M403.46,118.05 C421.93,138.99 442.28,166.78 452,196 C505.85,357.92 433.2,555.24 381.25,664.85 "
              fill="none" id="actor.intermediate.Main-to-actor.intermediate.Backend"
              style="stroke:#A80036;stroke-width:1.0;stroke-dasharray:7.0,7.0;"/>
        <polygon fill="#A80036"
                 points="378.95,669.68,386.4395,663.2841,381.1058,665.1686,379.2213,659.8349,378.95,669.68"
                 style="stroke:#A80036;stroke-width:1.0;"/>
        <text fill="#000000" font-family="sans-serif" font-size="13" lengthAdjust="spacing" textLength="50" x="465"
              y="413.4951">«create»
        </text><!--MD5=[7ce481ee4dc66edb42395d35b27c1520]
link actor.intermediate.Main to actor.intermediate.LoadBalancer-->
        <path codeLine="55"
              d="M285.73,89.61 C219.24,101.45 128.68,129.52 84,196 C41.11,259.81 53.82,298.28 84,369 C95.83,396.72 115.6,421.77 137.17,443.09 "
              fill="none" id="actor.intermediate.Main-to-actor.intermediate.LoadBalancer"
              style="stroke:#A80036;stroke-width:1.0;stroke-dasharray:7.0,7.0;"/>
        <polygon fill="#A80036" points="140.93,446.76,137.2835,437.611,137.352,443.2675,131.6955,443.3359,140.93,446.76"
                 style="stroke:#A80036;stroke-width:1.0;"/>
        <text fill="#000000" font-family="sans-serif" font-size="13" lengthAdjust="spacing" textLength="50" x="85"
              y="287.9951">«create»
        </text><!--MD5=[7d3a21c326136c768e35809a613dc5e9]
link actor.intermediate.Main to actor.intermediate.Frontend-->
        <path codeLine="56" d="M352.63,118.24 C345.24,138.82 335.71,165.35 326.49,191.02 " fill="none"
              id="actor.intermediate.Main-to-actor.intermediate.Frontend"
              style="stroke:#A80036;stroke-width:1.0;stroke-dasharray:7.0,7.0;"/>
        <polygon fill="#A80036" points="324.77,195.8,331.5927,188.6972,326.4707,191.0981,324.0697,185.9761,324.77,195.8"
                 style="stroke:#A80036;stroke-width:1.0;"/>
        <text fill="#000000" font-family="sans-serif" font-size="13" lengthAdjust="spacing" textLength="50" x="341"
              y="162.4951">«create»
        </text><!--MD5=[bdc720f39dd191d500b00de621c3b7b5]
link actor.intermediate.Main to util.Config-->
        <path codeLine="59"
              d="M446.12,116.02 C507.59,148.92 582,204.62 582,281.5 C582,281.5 582,281.5 582,750.5 C582,821.89 552.38,898.79 527.51,950.79 "
              fill="none" id="actor.intermediate.Main-to-util.Config"
              style="stroke:#A80036;stroke-width:1.0;stroke-dasharray:7.0,7.0;"/>
        <polygon fill="#A80036"
                 points="525.27,955.43,532.7838,949.0627,527.4429,950.9269,525.5788,945.586,525.27,955.43"
                 style="stroke:#A80036;stroke-width:1.0;"/>
        <text fill="#000000" font-family="sans-serif" font-size="13" lengthAdjust="spacing" textLength="107" x="583"
              y="524.9951">«create» (optional)
        </text><!--MD5=[2fed928c7cac7eabb67d106de165667e]
link actor.intermediate.Frontend to model.Packet-->
        <path codeLine="60"
              d="M169.63,369.04 C146.25,391.48 125.06,417.71 112,447 C44.86,597.56 93.88,791.81 136.32,909.16 "
              fill="none" id="actor.intermediate.Frontend-to-model.Packet"
              style="stroke:#A80036;stroke-width:1.0;stroke-dasharray:7.0,7.0;"/>
        <polygon fill="#A80036"
                 points="138.08,913.99,138.7707,904.1654,136.3747,909.2898,131.2503,906.8938,138.08,913.99"
                 style="stroke:#A80036;stroke-width:1.0;"/>
        <text fill="#000000" font-family="sans-serif" font-size="13" lengthAdjust="spacing" textLength="50" x="81"
              y="636.4951">«create»
        </text><!--MD5=[e1e617bbfbb923c764b8caaf27adaf93]
reverse link actor.intermediate.Backend to util.Config-->
        <path codeLine="62" d="M391.03,840.84 C413.68,878.71 439.36,921.64 459.41,955.16 " fill="none"
              id="actor.intermediate.Backend-backto-util.Config" style="stroke:#A80036;stroke-width:1.0;"/>
        <polygon fill="#A80036"
                 points="384.11,829.26,383.7561,836.4624,390.2684,839.5592,390.6223,832.3568,384.11,829.26"
                 style="stroke:#A80036;stroke-width:1.0;"/>
        <text fill="#000000" font-family="sans-serif" font-size="13" lengthAdjust="spacing" textLength="7" x="380.7215"
              y="850.0502">1
        </text>
        <text fill="#000000" font-family="sans-serif" font-size="13" lengthAdjust="spacing" textLength="7" x="447.7678"
              y="944.5195">1
        </text><!--MD5=[8858c7cc1cfa15908f9adbff1a2dab02]
reverse link actor.intermediate.Frontend to util.Config-->
        <path codeLine="63"
              d="M444.02,363.26 C454.93,373.97 464.56,385.86 472,399 C574.41,579.73 533.74,840.82 508.41,955.41 "
              fill="none" id="actor.intermediate.Frontend-backto-util.Config" style="stroke:#A80036;stroke-width:1.0;"/>
        <polygon fill="#A80036"
                 points="434.11,354.15,435.8144,361.1568,442.9378,362.2784,441.2333,355.2716,434.11,354.15"
                 style="stroke:#A80036;stroke-width:1.0;"/>
        <text fill="#000000" font-family="sans-serif" font-size="13" lengthAdjust="spacing" textLength="7" x="441.9637"
              y="355.1486">1
        </text>
        <text fill="#000000" font-family="sans-serif" font-size="13" lengthAdjust="spacing" textLength="7" x="502.7397"
              y="944.7999">1
        </text><!--MD5=[2ad3aa4b8f3800ef889f96cfa30d7887]
reverse link actor.intermediate.Frontend to actor.intermediate.LoadBalancer-->
        <path codeLine="65" d="M271.42,381.75 C266.4,403.63 261.16,426.41 256.44,446.97 " fill="none"
              id="actor.intermediate.Frontend-backto-actor.intermediate.LoadBalancer"
              style="stroke:#A80036;stroke-width:1.0;"/>
        <polygon fill="#A80036"
                 points="274.35,369.01,269.1123,373.9664,271.6729,380.7076,276.9106,375.7512,274.35,369.01"
                 style="stroke:#A80036;stroke-width:1.0;"/>
        <text fill="#000000" font-family="sans-serif" font-size="13" lengthAdjust="spacing" textLength="7" x="265.5052"
              y="390.0694">1
        </text>
        <text fill="#000000" font-family="sans-serif" font-size="13" lengthAdjust="spacing" textLength="7" x="250.7744"
              y="436.1862">1
        </text><!--MD5=[6b7753239ff497e132d4e5aa5d33fb65]
reverse link actor.intermediate.LoadBalancer to actor.intermediate.Backend-->
        <path codeLine="66" d="M275.56,604.09 C284.68,625.53 294.47,648.52 303.48,669.71 " fill="none"
              id="actor.intermediate.LoadBalancer-backto-actor.intermediate.Backend"
              style="stroke:#A80036;stroke-width:1.0;"/>
        <polygon fill="#A80036"
                 points="270.43,592.02,269.0975,599.1069,275.1268,603.0627,276.4593,595.9757,270.43,592.02"
                 style="stroke:#A80036;stroke-width:1.0;"/>
        <text fill="#000000" font-family="sans-serif" font-size="13" lengthAdjust="spacing" textLength="7" x="266.0809"
              y="613.4659">1
        </text>
        <text fill="#000000" font-family="sans-serif" font-size="13" lengthAdjust="spacing" textLength="5" x="295.1594"
              y="659.1426">*
        </text><!--MD5=[13ce733014564d8b878731c3d565f89c]
reverse link actor.intermediate.LoadBalancer to model.Packet-->
        <path codeLine="68"
              d="M224.87,605.16 C221.36,626.3 217.83,648.94 215,670 C203.99,751.87 194.68,845.14 188.44,913.74 "
              fill="none" id="actor.intermediate.LoadBalancer-backto-model.Packet"
              style="stroke:#A80036;stroke-width:1.0;"/>
        <polygon fill="#A80036"
                 points="227.05,592.22,222.1095,597.4727,225.058,604.0535,229.9985,598.8008,227.05,592.22"
                 style="stroke:#A80036;stroke-width:1.0;"/>
        <text fill="#000000" font-family="sans-serif" font-size="13" lengthAdjust="spacing" textLength="7" x="218.4821"
              y="613.4326">1
        </text>
        <text fill="#000000" font-family="sans-serif" font-size="13" lengthAdjust="spacing" textLength="5" x="183.8762"
              y="903.2905">*
        </text><!--MD5=[790a692c61e6fb01c7d2046a93f3fe75]
reverse link actor.intermediate.Backend to model.Packet-->
        <path codeLine="69" d="M283.08,840.66 C268.97,864.24 253.69,889.79 239.33,913.81 " fill="none"
              id="actor.intermediate.Backend-backto-model.Packet" style="stroke:#A80036;stroke-width:1.0;"/>
        <polygon fill="#A80036"
                 points="289.89,829.26,283.3777,832.3568,283.7316,839.5592,290.2439,836.4624,289.89,829.26"
                 style="stroke:#A80036;stroke-width:1.0;"/>
        <text fill="#000000" font-family="sans-serif" font-size="13" lengthAdjust="spacing" textLength="7" x="278.6989"
              y="850.0502">1
        </text>
        <text fill="#000000" font-family="sans-serif" font-size="13" lengthAdjust="spacing" textLength="5" x="238.681"
              y="903.0278">*
        </text><!--MD5=[2d5810d24e8efb602c250ed18e3e8b8f]
@startuml
'https://plantuml.com/class-diagram

!include class_diagram_config.puml

class actor.intermediate.Backend{
 - Config config
 - SynchronousQueue<Packet> packets
 - Logger logger
 - boolean run
 + Backend(Config config)
 + void handle(Packet packet)
 + void shutdown()
 + void run()
}
class actor.intermediate.LoadBalancer{
 - LinkedBlockingQueue<Packet> packets
 - Queue<Backend> backends
 - boolean run
 + LoadBalancer(Set<Backend> backends)
 + void add(Packet packet)
 + void shutdown()
 + void run()
}
class actor.intermediate.Frontend{
 - Config config
 - Logger logger
 - LoadBalancer loadBalancer
 - int port
 - boolean run
 + Frontend(Config config, LoadBalancer loadBalancer)
 + void shutdown()
 + int getPort()
 + void run()
}
class actor.intermediate.Main{
 {static} + Frontend run(Config config)
 {static} + void main(String[] args)
}

class model.Packet{
 - byte[] data
 - InetAddress address
 - int port
 + Packet(byte[] data, InetAddress address, int port)
 + Packet(DatagramPacket datagramPacket)
 + int getPort()
 + InetAddress getAddress()
 + byte[] getData()
 + String toString()
 + boolean equals(Object o)
 + int hashCode()
}

actor.intermediate.Main ..> actor.intermediate.Backend: "<<create>>"
actor.intermediate.Main ..> actor.intermediate.LoadBalancer: "<<create>>"
actor.intermediate.Main ..> actor.intermediate.Frontend: "<<create>>"


actor.intermediate.Main ..> util.Config: "<<create>> (optional)"
actor.intermediate.Frontend ..> model.Packet: "<<create>>"

actor.intermediate.Backend "1" *- - "1" util.Config
actor.intermediate.Frontend "1" *- - "1" util.Config

actor.intermediate.Frontend "1" *- - "1" actor.intermediate.LoadBalancer
actor.intermediate.LoadBalancer "1" *- - "*" actor.intermediate.Backend

actor.intermediate.LoadBalancer "1" *- - "*" model.Packet
actor.intermediate.Backend "1" *- - "*" model.Packet

@enduml

@startuml

class util.Config{
 {static} - String CONFIG_FILE_NAME
 - Properties properties
 + Config()
 + String getProperty(String key)
 + int getIntProperty(String key
}

class actor.intermediate.Backend{
 - Config config
 - SynchronousQueue<Packet> packets
 - Logger logger
 - boolean run
 + Backend(Config config)
 + void handle(Packet packet)
 + void shutdown()
 + void run()
}
class actor.intermediate.LoadBalancer{
 - LinkedBlockingQueue<Packet> packets
 - Queue<Backend> backends
 - boolean run
 + LoadBalancer(Set<Backend> backends)
 + void add(Packet packet)
 + void shutdown()
 + void run()
}
class actor.intermediate.Frontend{
 - Config config
 - Logger logger
 - LoadBalancer loadBalancer
 - int port
 - boolean run
 + Frontend(Config config, LoadBalancer loadBalancer)
 + void shutdown()
 + int getPort()
 + void run()
}
class actor.intermediate.Main{
 {static} + Frontend run(Config config)
 {static} + void main(String[] args)
}

class model.Packet{
 - byte[] data
 - InetAddress address
 - int port
 + Packet(byte[] data, InetAddress address, int port)
 + Packet(DatagramPacket datagramPacket)
 + int getPort()
 + InetAddress getAddress()
 + byte[] getData()
 + String toString()
 + boolean equals(Object o)
 + int hashCode()
}

actor.intermediate.Main ..> actor.intermediate.Backend: "<<create>>"
actor.intermediate.Main ..> actor.intermediate.LoadBalancer: "<<create>>"
actor.intermediate.Main ..> actor.intermediate.Frontend: "<<create>>"


actor.intermediate.Main ..> util.Config: "<<create>> (optional)"
actor.intermediate.Frontend ..> model.Packet: "<<create>>"

actor.intermediate.Backend "1" *- - "1" util.Config
actor.intermediate.Frontend "1" *- - "1" util.Config

actor.intermediate.Frontend "1" *- - "1" actor.intermediate.LoadBalancer
actor.intermediate.LoadBalancer "1" *- - "*" actor.intermediate.Backend

actor.intermediate.LoadBalancer "1" *- - "*" model.Packet
actor.intermediate.Backend "1" *- - "*" model.Packet

@enduml

PlantUML version 1.2021.01(Tue Feb 02 02:55:08 EST 2021)
(GPL source distribution)
Java Runtime: OpenJDK Runtime Environment
JVM: OpenJDK 64-Bit Server VM
Default Encoding: Cp1252
Language: en
Country: US
-->
    </g>
</svg>