<?xml version="1.0" encoding="UTF-8" standalone="no"?>
<svg xmlns="http://www.w3.org/2000/svg"
     contentScriptType="application/ecmascript" contentStyleType="text/css" height="182px" preserveAspectRatio="none"
     style="width:235px;height:182px;" version="1.1" viewBox="0 0 235 182" width="235px" zoomAndPan="magnify">
    <defs>
        <filter height="300%" id="f1bsz3uv8l2o43" width="300%" x="-1" y="-1">
            <feGaussianBlur result="blurOut" stdDeviation="2.0"/>
            <feColorMatrix in="blurOut" result="blurOut2" type="matrix"
                           values="0 0 0 0 0 0 0 0 0 0 0 0 0 0 0 0 0 0 .4 0"/>
            <feOffset dx="4.0" dy="4.0" in="blurOut2" result="blurOut3"/>
            <feBlend in="SourceGraphic" in2="blurOut3" mode="normal"/>
        </filter>
    </defs>
    <g><!--MD5=[3e81cc6ee7da4fa8b6adc12b329096f6]
cluster util-->
        <polygon fill="#FFFFFF" filter="url(#f1bsz3uv8l2o43)"
                 points="16,6,44,6,51,29.6094,218,29.6094,218,175,16,175,16,6"
                 style="stroke:#000000;stroke-width:1.5;"/>
        <line style="stroke:#000000;stroke-width:1.5;" x1="16" x2="51" y1="29.6094" y2="29.6094"/>
        <text fill="#000000" font-family="sans-serif" font-size="14" font-weight="bold" lengthAdjust="spacing"
              textLength="22" x="20" y="22.5332">util
        </text><!--MD5=[a813df4c85b388216b83cdbb1b1c209c]
class util.Config-->
        <rect codeLine="1" fill="#FEFECE" filter="url(#f1bsz3uv8l2o43)" height="117.1797" id="util.Config"
              style="stroke:#A80036;stroke-width:1.5;" width="169" x="32.5" y="42"/>
        <ellipse cx="94.75" cy="58" fill="#ADD1B2" rx="11" ry="11" style="stroke:#A80036;stroke-width:1.0;"/>
        <path d="M96.75,54.5 Q96.9531,54 97.1875,53.75 Q97.4219,53.5 97.6875,53.5 Q98.1563,53.5 98.4531,53.7813 Q98.75,54.0625 98.75,54.7188 L98.75,56.2813 Q98.75,56.9375 98.4688,57.2188 Q98.1875,57.5 97.75,57.5 Q97.3594,57.5 97.1094,57.3281 Q96.8594,57.1563 96.75,56.7031 Q96.7031,56.3906 96.5313,56.2188 Q96.2188,55.8906 95.6563,55.7031 Q95.0938,55.5 94.5313,55.5 Q93.8281,55.5 93.2344,55.7813 Q92.6563,56.0625 92.2031,56.6875 Q91.75,57.3125 91.75,58.1719 L91.75,59.0938 Q91.75,60.125 92.5938,60.8125 Q93.4375,61.5 94.9375,61.5 Q95.8281,61.5 96.4531,61.2969 Q96.8125,61.1875 97.2188,60.8281 Q97.4844,60.625 97.625,60.5625 Q97.7656,60.5 97.9375,60.5 Q98.2656,60.5 98.5,60.7656 Q98.75,61.0156 98.75,61.375 Q98.75,61.7188 98.4063,62.125 Q97.9063,62.7188 97.1094,63.0469 Q96.0625,63.5 94.7813,63.5 Q93.2813,63.5 92.0781,62.9063 Q91.1094,62.4375 90.4219,61.4219 Q89.75,60.4063 89.75,59.2031 L89.75,58.1094 Q89.75,56.8594 90.3438,55.7656 Q90.9531,54.6719 92,54.0938 Q93.0625,53.5 94.25,53.5 Q94.9688,53.5 95.5938,53.75 Q96.2188,54 96.75,54.5 Z "
              fill="#000000"/>
        <text fill="#000000" font-family="sans-serif" font-size="12" lengthAdjust="spacing" textLength="36" x="115.25"
              y="62.9102">Config
        </text>
        <line style="stroke:#A80036;stroke-width:1.5;" x1="33.5" x2="200.5" y1="74" y2="74"/>
        <rect fill="none" height="6" style="stroke:#C82930;stroke-width:1.0;" width="6" x="40.5" y="82"/>
        <text fill="#000000" font-family="sans-serif" font-size="11" lengthAdjust="spacing" text-decoration="underline"
              textLength="130" x="52.5" y="89.4189">String CONFIG_FILE_NAME
        </text>
        <rect fill="none" height="6" style="stroke:#C82930;stroke-width:1.0;" width="6" x="40.5" y="95.8359"/>
        <text fill="#000000" font-family="sans-serif" font-size="11" lengthAdjust="spacing" textLength="101" x="52.5"
              y="103.2549">Properties properties
        </text>
        <line style="stroke:#A80036;stroke-width:1.5;" x1="33.5" x2="200.5" y1="109.6719" y2="109.6719"/>
        <ellipse cx="43.5" cy="120.6719" fill="#84BE84" rx="3" ry="3" style="stroke:#038048;stroke-width:1.0;"/>
        <text fill="#000000" font-family="sans-serif" font-size="11" lengthAdjust="spacing" textLength="39" x="52.5"
              y="125.0908">Config()
        </text>
        <ellipse cx="43.5" cy="134.5078" fill="#84BE84" rx="3" ry="3" style="stroke:#038048;stroke-width:1.0;"/>
        <text fill="#000000" font-family="sans-serif" font-size="11" lengthAdjust="spacing" textLength="143" x="52.5"
              y="138.9268">String getProperty(String key)
        </text>
        <ellipse cx="43.5" cy="148.3438" fill="#84BE84" rx="3" ry="3" style="stroke:#038048;stroke-width:1.0;"/>
        <text fill="#000000" font-family="sans-serif" font-size="11" lengthAdjust="spacing" textLength="133" x="52.5"
              y="152.7627">int getIntProperty(String key
        </text><!--MD5=[e50febdf09656f0a06e19d89b9d9e9ad]
@startuml
class util.Config{
 {static} - String CONFIG_FILE_NAME
 - Properties properties
 + Config()
 + String getProperty(String key)
 + int getIntProperty(String key
}
@enduml

PlantUML version 1.2021.01(Tue Feb 02 02:55:08 EST 2021)
(GPL source distribution)
Java Runtime: OpenJDK Runtime Environment
JVM: OpenJDK 64-Bit Server VM
Default Encoding: Cp1252
Language: en
Country: US
-->
    </g>
</svg>