<?xml version="1.0" encoding="UTF-8" standalone="no"?>
<svg xmlns="http://www.w3.org/2000/svg" contentScriptType="application/ecmascript" contentStyleType="text/css"
     height="1151px" preserveAspectRatio="none" style="width:698px;height:1151px;" version="1.1" viewBox="0 0 698 1151"
     width="698px" zoomAndPan="magnify">
    <defs>
        <filter height="300%" id="f111cfkbes5mye" width="300%" x="-1" y="-1">
            <feGaussianBlur result="blurOut" stdDeviation="2.0"/>
            <feColorMatrix in="blurOut" result="blurOut2" type="matrix"
                           values="0 0 0 0 0 0 0 0 0 0 0 0 0 0 0 0 0 0 .4 0"/>
            <feOffset dx="4.0" dy="4.0" in="blurOut2" result="blurOut3"/>
            <feBlend in="SourceGraphic" in2="blurOut3" mode="normal"/>
        </filter>
    </defs>
    <g><!--MD5=[3e81cc6ee7da4fa8b6adc12b329096f6]
cluster util-->
        <polygon fill="#FFFFFF" filter="url(#f111cfkbes5mye)"
                 points="393,933.5,421,933.5,428,957.1094,595,957.1094,595,1102.5,393,1102.5,393,933.5"
                 style="stroke:#000000;stroke-width:1.5;"/>
        <line style="stroke:#000000;stroke-width:1.5;" x1="393" x2="428" y1="957.1094" y2="957.1094"/>
        <text fill="#000000" font-family="sans-serif" font-size="14" font-weight="bold" lengthAdjust="spacing"
              textLength="22" x="397" y="950.0332">util
        </text><!--MD5=[25978a4fff2e3f143e96a46d7bb4290d]
cluster actor.intermediate-->
        <polygon fill="#FFFFFF" filter="url(#f111cfkbes5mye)"
                 points="16,6,151,6,158,29.6094,487,29.6094,487,859,16,859,16,6"
                 style="stroke:#000000;stroke-width:1.5;"/>
        <line style="stroke:#000000;stroke-width:1.5;" x1="16" x2="158" y1="29.6094" y2="29.6094"/>
        <text fill="#000000" font-family="sans-serif" font-size="14" font-weight="bold" lengthAdjust="spacing"
              textLength="129" x="20" y="22.5332">actor.intermediate
        </text><!--MD5=[5d4cd377749310b66bf14896f5cd8d9b]
cluster model-->
        <polygon fill="#FFFFFF" filter="url(#f111cfkbes5mye)"
                 points="30,892,79,892,86,915.6094,326,915.6094,326,1144,30,1144,30,892"
                 style="stroke:#000000;stroke-width:1.5;"/>
        <line style="stroke:#000000;stroke-width:1.5;" x1="30" x2="86" y1="915.6094" y2="915.6094"/>
        <text fill="#000000" font-family="sans-serif" font-size="14" font-weight="bold" lengthAdjust="spacing"
              textLength="43" x="34" y="908.5332">model
        </text><!--MD5=[a813df4c85b388216b83cdbb1b1c209c]
class util.Config-->
        <rect codeLine="1" fill="#FEFECE" filter="url(#f111cfkbes5mye)" height="117.1797" id="util.Config"
              style="stroke:#A80036;stroke-width:1.5;" width="169" x="409.5" y="969.5"/>
        <ellipse cx="471.75" cy="985.5" fill="#ADD1B2" rx="11" ry="11" style="stroke:#A80036;stroke-width:1.0;"/>
        <path d="M473.75,982 Q473.9531,981.5 474.1875,981.25 Q474.4219,981 474.6875,981 Q475.1563,981 475.4531,981.2813 Q475.75,981.5625 475.75,982.2188 L475.75,983.7813 Q475.75,984.4375 475.4688,984.7188 Q475.1875,985 474.75,985 Q474.3594,985 474.1094,984.8281 Q473.8594,984.6563 473.75,984.2031 Q473.7031,983.8906 473.5313,983.7188 Q473.2188,983.3906 472.6563,983.2031 Q472.0938,983 471.5313,983 Q470.8281,983 470.2344,983.2813 Q469.6563,983.5625 469.2031,984.1875 Q468.75,984.8125 468.75,985.6719 L468.75,986.5938 Q468.75,987.625 469.5938,988.3125 Q470.4375,989 471.9375,989 Q472.8281,989 473.4531,988.7969 Q473.8125,988.6875 474.2188,988.3281 Q474.4844,988.125 474.625,988.0625 Q474.7656,988 474.9375,988 Q475.2656,988 475.5,988.2656 Q475.75,988.5156 475.75,988.875 Q475.75,989.2188 475.4063,989.625 Q474.9063,990.2188 474.1094,990.5469 Q473.0625,991 471.7813,991 Q470.2813,991 469.0781,990.4063 Q468.1094,989.9375 467.4219,988.9219 Q466.75,987.9063 466.75,986.7031 L466.75,985.6094 Q466.75,984.3594 467.3438,983.2656 Q467.9531,982.1719 469,981.5938 Q470.0625,981 471.25,981 Q471.9688,981 472.5938,981.25 Q473.2188,981.5 473.75,982 Z "
              fill="#000000"/>
        <text fill="#000000" font-family="sans-serif" font-size="12" lengthAdjust="spacing" textLength="36" x="492.25"
              y="990.4102">Config
        </text>
        <line style="stroke:#A80036;stroke-width:1.5;" x1="410.5" x2="577.5" y1="1001.5" y2="1001.5"/>
        <rect fill="none" height="6" style="stroke:#C82930;stroke-width:1.0;" width="6" x="417.5" y="1009.5"/>
        <text fill="#000000" font-family="sans-serif" font-size="11" lengthAdjust="spacing" text-decoration="underline"
              textLength="130" x="429.5" y="1016.9189">String CONFIG_FILE_NAME
        </text>
        <rect fill="none" height="6" style="stroke:#C82930;stroke-width:1.0;" width="6" x="417.5" y="1023.3359"/>
        <text fill="#000000" font-family="sans-serif" font-size="11" lengthAdjust="spacing" textLength="101" x="429.5"
              y="1030.7549">Properties properties
        </text>
        <line style="stroke:#A80036;stroke-width:1.5;" x1="410.5" x2="577.5" y1="1037.1719" y2="1037.1719"/>
        <ellipse cx="420.5" cy="1048.1719" fill="#84BE84" rx="3" ry="3" style="stroke:#038048;stroke-width:1.0;"/>
        <text fill="#000000" font-family="sans-serif" font-size="11" lengthAdjust="spacing" textLength="39" x="429.5"
              y="1052.5908">Config()
        </text>
        <ellipse cx="420.5" cy="1062.0078" fill="#84BE84" rx="3" ry="3" style="stroke:#038048;stroke-width:1.0;"/>
        <text fill="#000000" font-family="sans-serif" font-size="11" lengthAdjust="spacing" textLength="143" x="429.5"
              y="1066.4268">String getProperty(String key)
        </text>
        <ellipse cx="420.5" cy="1075.8438" fill="#84BE84" rx="3" ry="3" style="stroke:#038048;stroke-width:1.0;"/>
        <text fill="#000000" font-family="sans-serif" font-size="11" lengthAdjust="spacing" textLength="133" x="429.5"
              y="1080.2627">int getIntProperty(String key
        </text><!--MD5=[c709b2901bae0d00d20d8e5d1204bd9a]
class actor.intermediate.Backend-->
        <rect codeLine="5" fill="#FEFECE" filter="url(#f111cfkbes5mye)" height="172.5234"
              id="actor.intermediate.Backend" style="stroke:#A80036;stroke-width:1.5;" width="209" x="231.5" y="670"/>
        <ellipse cx="307.75" cy="686" fill="#ADD1B2" rx="11" ry="11" style="stroke:#A80036;stroke-width:1.0;"/>
        <path d="M309.75,682.5 Q309.9531,682 310.1875,681.75 Q310.4219,681.5 310.6875,681.5 Q311.1563,681.5 311.4531,681.7813 Q311.75,682.0625 311.75,682.7188 L311.75,684.2813 Q311.75,684.9375 311.4688,685.2188 Q311.1875,685.5 310.75,685.5 Q310.3594,685.5 310.1094,685.3281 Q309.8594,685.1563 309.75,684.7031 Q309.7031,684.3906 309.5313,684.2188 Q309.2188,683.8906 308.6563,683.7031 Q308.0938,683.5 307.5313,683.5 Q306.8281,683.5 306.2344,683.7813 Q305.6563,684.0625 305.2031,684.6875 Q304.75,685.3125 304.75,686.1719 L304.75,687.0938 Q304.75,688.125 305.5938,688.8125 Q306.4375,689.5 307.9375,689.5 Q308.8281,689.5 309.4531,689.2969 Q309.8125,689.1875 310.2188,688.8281 Q310.4844,688.625 310.625,688.5625 Q310.7656,688.5 310.9375,688.5 Q311.2656,688.5 311.5,688.7656 Q311.75,689.0156 311.75,689.375 Q311.75,689.7188 311.4063,690.125 Q310.9063,690.7188 310.1094,691.0469 Q309.0625,691.5 307.7813,691.5 Q306.2813,691.5 305.0781,690.9063 Q304.1094,690.4375 303.4219,689.4219 Q302.75,688.4063 302.75,687.2031 L302.75,686.1094 Q302.75,684.8594 303.3438,683.7656 Q303.9531,682.6719 305,682.0938 Q306.0625,681.5 307.25,681.5 Q307.9688,681.5 308.5938,681.75 Q309.2188,682 309.75,682.5 Z "
              fill="#000000"/>
        <text fill="#000000" font-family="sans-serif" font-size="12" lengthAdjust="spacing" textLength="48" x="328.25"
              y="690.9102">Backend
        </text>
        <line style="stroke:#A80036;stroke-width:1.5;" x1="232.5" x2="439.5" y1="702" y2="702"/>
        <rect fill="none" height="6" style="stroke:#C82930;stroke-width:1.0;" width="6" x="239.5" y="710"/>
        <text fill="#000000" font-family="sans-serif" font-size="11" lengthAdjust="spacing" textLength="63" x="251.5"
              y="717.4189">int backendId
        </text>
        <rect fill="none" height="6" style="stroke:#C82930;stroke-width:1.0;" width="6" x="239.5" y="723.8359"/>
        <text fill="#000000" font-family="sans-serif" font-size="11" lengthAdjust="spacing" textLength="64" x="251.5"
              y="731.2549">Config config
        </text>
        <rect fill="none" height="6" style="stroke:#C82930;stroke-width:1.0;" width="6" x="239.5" y="737.6719"/>
        <text fill="#000000" font-family="sans-serif" font-size="11" lengthAdjust="spacing" textLength="182" x="251.5"
              y="745.0908">SynchronousQueue&lt;Packet&gt; packets
        </text>
        <rect fill="none" height="6" style="stroke:#C82930;stroke-width:1.0;" width="6" x="239.5" y="751.5078"/>
        <text fill="#000000" font-family="sans-serif" font-size="11" lengthAdjust="spacing" textLength="67" x="251.5"
              y="758.9268">Logger logger
        </text>
        <rect fill="none" height="6" style="stroke:#C82930;stroke-width:1.0;" width="6" x="239.5" y="765.3438"/>
        <text fill="#000000" font-family="sans-serif" font-size="11" lengthAdjust="spacing" textLength="57" x="251.5"
              y="772.7627">boolean run
        </text>
        <line style="stroke:#A80036;stroke-width:1.5;" x1="232.5" x2="439.5" y1="779.1797" y2="779.1797"/>
        <ellipse cx="242.5" cy="790.1797" fill="#84BE84" rx="3" ry="3" style="stroke:#038048;stroke-width:1.0;"/>
        <text fill="#000000" font-family="sans-serif" font-size="11" lengthAdjust="spacing" textLength="183" x="251.5"
              y="794.5986">Backend(int backendId, Config config)
        </text>
        <ellipse cx="242.5" cy="804.0156" fill="#84BE84" rx="3" ry="3" style="stroke:#038048;stroke-width:1.0;"/>
        <text fill="#000000" font-family="sans-serif" font-size="11" lengthAdjust="spacing" textLength="130" x="251.5"
              y="808.4346">void handle(Packet packet)
        </text>
        <ellipse cx="242.5" cy="817.8516" fill="#84BE84" rx="3" ry="3" style="stroke:#038048;stroke-width:1.0;"/>
        <text fill="#000000" font-family="sans-serif" font-size="11" lengthAdjust="spacing" textLength="80" x="251.5"
              y="822.2705">void shutdown()
        </text>
        <ellipse cx="242.5" cy="831.6875" fill="#84BE84" rx="3" ry="3" style="stroke:#038048;stroke-width:1.0;"/>
        <text fill="#000000" font-family="sans-serif" font-size="11" lengthAdjust="spacing" textLength="47" x="251.5"
              y="836.1064">void run()
        </text><!--MD5=[6ca3a40013fc5d1bb050092725baeed9]
class actor.intermediate.LoadBalancer-->
        <rect codeLine="16" fill="#FEFECE" filter="url(#f111cfkbes5mye)" height="144.8516"
              id="actor.intermediate.LoadBalancer" style="stroke:#A80036;stroke-width:1.5;" width="221" x="129.5"
              y="447"/>
        <ellipse cx="197.25" cy="463" fill="#ADD1B2" rx="11" ry="11" style="stroke:#A80036;stroke-width:1.0;"/>
        <path d="M199.25,459.5 Q199.4531,459 199.6875,458.75 Q199.9219,458.5 200.1875,458.5 Q200.6563,458.5 200.9531,458.7813 Q201.25,459.0625 201.25,459.7188 L201.25,461.2813 Q201.25,461.9375 200.9688,462.2188 Q200.6875,462.5 200.25,462.5 Q199.8594,462.5 199.6094,462.3281 Q199.3594,462.1563 199.25,461.7031 Q199.2031,461.3906 199.0313,461.2188 Q198.7188,460.8906 198.1563,460.7031 Q197.5938,460.5 197.0313,460.5 Q196.3281,460.5 195.7344,460.7813 Q195.1563,461.0625 194.7031,461.6875 Q194.25,462.3125 194.25,463.1719 L194.25,464.0938 Q194.25,465.125 195.0938,465.8125 Q195.9375,466.5 197.4375,466.5 Q198.3281,466.5 198.9531,466.2969 Q199.3125,466.1875 199.7188,465.8281 Q199.9844,465.625 200.125,465.5625 Q200.2656,465.5 200.4375,465.5 Q200.7656,465.5 201,465.7656 Q201.25,466.0156 201.25,466.375 Q201.25,466.7188 200.9063,467.125 Q200.4063,467.7188 199.6094,468.0469 Q198.5625,468.5 197.2813,468.5 Q195.7813,468.5 194.5781,467.9063 Q193.6094,467.4375 192.9219,466.4219 Q192.25,465.4063 192.25,464.2031 L192.25,463.1094 Q192.25,461.8594 192.8438,460.7656 Q193.4531,459.6719 194.5,459.0938 Q195.5625,458.5 196.75,458.5 Q197.4688,458.5 198.0938,458.75 Q198.7188,459 199.25,459.5 Z "
              fill="#000000"/>
        <text fill="#000000" font-family="sans-serif" font-size="12" lengthAdjust="spacing" textLength="77" x="217.75"
              y="467.9102">LoadBalancer
        </text>
        <line style="stroke:#A80036;stroke-width:1.5;" x1="130.5" x2="349.5" y1="479" y2="479"/>
        <rect fill="none" height="6" style="stroke:#C82930;stroke-width:1.0;" width="6" x="137.5" y="487"/>
        <text fill="#000000" font-family="sans-serif" font-size="11" lengthAdjust="spacing" textLength="188" x="149.5"
              y="494.4189">LinkedBlockingQueue&lt;Packet&gt; packets
        </text>
        <rect fill="none" height="6" style="stroke:#C82930;stroke-width:1.0;" width="6" x="137.5" y="500.8359"/>
        <text fill="#000000" font-family="sans-serif" font-size="11" lengthAdjust="spacing" textLength="136" x="149.5"
              y="508.2549">Queue&lt;Backend&gt; backends
        </text>
        <rect fill="none" height="6" style="stroke:#C82930;stroke-width:1.0;" width="6" x="137.5" y="514.6719"/>
        <text fill="#000000" font-family="sans-serif" font-size="11" lengthAdjust="spacing" textLength="57" x="149.5"
              y="522.0908">boolean run
        </text>
        <line style="stroke:#A80036;stroke-width:1.5;" x1="130.5" x2="349.5" y1="528.5078" y2="528.5078"/>
        <ellipse cx="140.5" cy="539.5078" fill="#84BE84" rx="3" ry="3" style="stroke:#038048;stroke-width:1.0;"/>
        <text fill="#000000" font-family="sans-serif" font-size="11" lengthAdjust="spacing" textLength="195" x="149.5"
              y="543.9268">LoadBalancer(Set&lt;Backend&gt; backends)
        </text>
        <ellipse cx="140.5" cy="553.3438" fill="#84BE84" rx="3" ry="3" style="stroke:#038048;stroke-width:1.0;"/>
        <text fill="#000000" font-family="sans-serif" font-size="11" lengthAdjust="spacing" textLength="116" x="149.5"
              y="557.7627">void add(Packet packet)
        </text>
        <ellipse cx="140.5" cy="567.1797" fill="#84BE84" rx="3" ry="3" style="stroke:#038048;stroke-width:1.0;"/>
        <text fill="#000000" font-family="sans-serif" font-size="11" lengthAdjust="spacing" textLength="80" x="149.5"
              y="571.5986">void shutdown()
        </text>
        <ellipse cx="140.5" cy="581.0156" fill="#84BE84" rx="3" ry="3" style="stroke:#038048;stroke-width:1.0;"/>
        <text fill="#000000" font-family="sans-serif" font-size="11" lengthAdjust="spacing" textLength="47" x="149.5"
              y="585.4346">void run()
        </text><!--MD5=[158b96e62c213eecd68a766e45822f6c]
class actor.intermediate.Frontend-->
        <rect codeLine="25" fill="#FEFECE" filter="url(#f111cfkbes5mye)" height="172.5234"
              id="actor.intermediate.Frontend" style="stroke:#A80036;stroke-width:1.5;" width="280" x="154" y="196"/>
        <ellipse cx="265.25" cy="212" fill="#ADD1B2" rx="11" ry="11" style="stroke:#A80036;stroke-width:1.0;"/>
        <path d="M267.25,208.5 Q267.4531,208 267.6875,207.75 Q267.9219,207.5 268.1875,207.5 Q268.6563,207.5 268.9531,207.7813 Q269.25,208.0625 269.25,208.7188 L269.25,210.2813 Q269.25,210.9375 268.9688,211.2188 Q268.6875,211.5 268.25,211.5 Q267.8594,211.5 267.6094,211.3281 Q267.3594,211.1563 267.25,210.7031 Q267.2031,210.3906 267.0313,210.2188 Q266.7188,209.8906 266.1563,209.7031 Q265.5938,209.5 265.0313,209.5 Q264.3281,209.5 263.7344,209.7813 Q263.1563,210.0625 262.7031,210.6875 Q262.25,211.3125 262.25,212.1719 L262.25,213.0938 Q262.25,214.125 263.0938,214.8125 Q263.9375,215.5 265.4375,215.5 Q266.3281,215.5 266.9531,215.2969 Q267.3125,215.1875 267.7188,214.8281 Q267.9844,214.625 268.125,214.5625 Q268.2656,214.5 268.4375,214.5 Q268.7656,214.5 269,214.7656 Q269.25,215.0156 269.25,215.375 Q269.25,215.7188 268.9063,216.125 Q268.4063,216.7188 267.6094,217.0469 Q266.5625,217.5 265.2813,217.5 Q263.7813,217.5 262.5781,216.9063 Q261.6094,216.4375 260.9219,215.4219 Q260.25,214.4063 260.25,213.2031 L260.25,212.1094 Q260.25,210.8594 260.8438,209.7656 Q261.4531,208.6719 262.5,208.0938 Q263.5625,207.5 264.75,207.5 Q265.4688,207.5 266.0938,207.75 Q266.7188,208 267.25,208.5 Z "
              fill="#000000"/>
        <text fill="#000000" font-family="sans-serif" font-size="12" lengthAdjust="spacing" textLength="49" x="285.75"
              y="216.9102">Frontend
        </text>
        <line style="stroke:#A80036;stroke-width:1.5;" x1="155" x2="433" y1="228" y2="228"/>
        <rect fill="none" height="6" style="stroke:#C82930;stroke-width:1.0;" width="6" x="162" y="236"/>
        <text fill="#000000" font-family="sans-serif" font-size="11" lengthAdjust="spacing" textLength="64" x="174"
              y="243.4189">Config config
        </text>
        <rect fill="none" height="6" style="stroke:#C82930;stroke-width:1.0;" width="6" x="162" y="249.8359"/>
        <text fill="#000000" font-family="sans-serif" font-size="11" lengthAdjust="spacing" textLength="67" x="174"
              y="257.2549">Logger logger
        </text>
        <rect fill="none" height="6" style="stroke:#C82930;stroke-width:1.0;" width="6" x="162" y="263.6719"/>
        <text fill="#000000" font-family="sans-serif" font-size="11" lengthAdjust="spacing" textLength="133" x="174"
              y="271.0908">LoadBalancer loadBalancer
        </text>
        <rect fill="none" height="6" style="stroke:#C82930;stroke-width:1.0;" width="6" x="162" y="277.5078"/>
        <text fill="#000000" font-family="sans-serif" font-size="11" lengthAdjust="spacing" textLength="33" x="174"
              y="284.9268">int port
        </text>
        <rect fill="none" height="6" style="stroke:#C82930;stroke-width:1.0;" width="6" x="162" y="291.3438"/>
        <text fill="#000000" font-family="sans-serif" font-size="11" lengthAdjust="spacing" textLength="57" x="174"
              y="298.7627">boolean run
        </text>
        <line style="stroke:#A80036;stroke-width:1.5;" x1="155" x2="433" y1="305.1797" y2="305.1797"/>
        <ellipse cx="165" cy="316.1797" fill="#84BE84" rx="3" ry="3" style="stroke:#038048;stroke-width:1.0;"/>
        <text fill="#000000" font-family="sans-serif" font-size="11" lengthAdjust="spacing" textLength="254" x="174"
              y="320.5986">Frontend(Config config, LoadBalancer loadBalancer)
        </text>
        <ellipse cx="165" cy="330.0156" fill="#84BE84" rx="3" ry="3" style="stroke:#038048;stroke-width:1.0;"/>
        <text fill="#000000" font-family="sans-serif" font-size="11" lengthAdjust="spacing" textLength="80" x="174"
              y="334.4346">void shutdown()
        </text>
        <ellipse cx="165" cy="343.8516" fill="#84BE84" rx="3" ry="3" style="stroke:#038048;stroke-width:1.0;"/>
        <text fill="#000000" font-family="sans-serif" font-size="11" lengthAdjust="spacing" textLength="56" x="174"
              y="348.2705">int getPort()
        </text>
        <ellipse cx="165" cy="357.6875" fill="#84BE84" rx="3" ry="3" style="stroke:#038048;stroke-width:1.0;"/>
        <text fill="#000000" font-family="sans-serif" font-size="11" lengthAdjust="spacing" textLength="47" x="174"
              y="362.1064">void run()
        </text><!--MD5=[52069bcbeea4e4a3c9de668c3c33a83b]
class actor.intermediate.Main-->
        <rect codeLine="36" fill="#FEFECE" filter="url(#f111cfkbes5mye)" height="75.6719" id="actor.intermediate.Main"
              style="stroke:#A80036;stroke-width:1.5;" width="160" x="286" y="42"/>
        <ellipse cx="348.75" cy="58" fill="#ADD1B2" rx="11" ry="11" style="stroke:#A80036;stroke-width:1.0;"/>
        <path d="M350.75,54.5 Q350.9531,54 351.1875,53.75 Q351.4219,53.5 351.6875,53.5 Q352.1563,53.5 352.4531,53.7813 Q352.75,54.0625 352.75,54.7188 L352.75,56.2813 Q352.75,56.9375 352.4688,57.2188 Q352.1875,57.5 351.75,57.5 Q351.3594,57.5 351.1094,57.3281 Q350.8594,57.1563 350.75,56.7031 Q350.7031,56.3906 350.5313,56.2188 Q350.2188,55.8906 349.6563,55.7031 Q349.0938,55.5 348.5313,55.5 Q347.8281,55.5 347.2344,55.7813 Q346.6563,56.0625 346.2031,56.6875 Q345.75,57.3125 345.75,58.1719 L345.75,59.0938 Q345.75,60.125 346.5938,60.8125 Q347.4375,61.5 348.9375,61.5 Q349.8281,61.5 350.4531,61.2969 Q350.8125,61.1875 351.2188,60.8281 Q351.4844,60.625 351.625,60.5625 Q351.7656,60.5 351.9375,60.5 Q352.2656,60.5 352.5,60.7656 Q352.75,61.0156 352.75,61.375 Q352.75,61.7188 352.4063,62.125 Q351.9063,62.7188 351.1094,63.0469 Q350.0625,63.5 348.7813,63.5 Q347.2813,63.5 346.0781,62.9063 Q345.1094,62.4375 344.4219,61.4219 Q343.75,60.4063 343.75,59.2031 L343.75,58.1094 Q343.75,56.8594 344.3438,55.7656 Q344.9531,54.6719 346,54.0938 Q347.0625,53.5 348.25,53.5 Q348.9688,53.5 349.5938,53.75 Q350.2188,54 350.75,54.5 Z "
              fill="#000000"/>
        <text fill="#000000" font-family="sans-serif" font-size="12" lengthAdjust="spacing" textLength="26" x="369.25"
              y="62.9102">Main
        </text>
        <line style="stroke:#A80036;stroke-width:1.5;" x1="287" x2="445" y1="74" y2="74"/>
        <line style="stroke:#A80036;stroke-width:1.5;" x1="287" x2="445" y1="82" y2="82"/>
        <ellipse cx="297" cy="93" fill="#84BE84" rx="3" ry="3" style="stroke:#038048;stroke-width:1.0;"/>
        <text fill="#000000" font-family="sans-serif" font-size="11" lengthAdjust="spacing" text-decoration="underline"
              textLength="134" x="306" y="97.4189">Frontend run(Config config)
        </text>
        <ellipse cx="297" cy="106.8359" fill="#84BE84" rx="3" ry="3" style="stroke:#038048;stroke-width:1.0;"/>
        <text fill="#000000" font-family="sans-serif" font-size="11" lengthAdjust="spacing" text-decoration="underline"
              textLength="112" x="306" y="111.2549">void main(String[] args)
        </text><!--MD5=[ac83bc419c6b56a25f2a64a1d675da41]
class model.Packet-->
        <rect codeLine="41" fill="#FEFECE" filter="url(#f111cfkbes5mye)" height="200.1953" id="model.Packet"
              style="stroke:#A80036;stroke-width:1.5;" width="264" x="46" y="928"/>
        <ellipse cx="155.25" cy="944" fill="#ADD1B2" rx="11" ry="11" style="stroke:#A80036;stroke-width:1.0;"/>
        <path d="M157.25,940.5 Q157.4531,940 157.6875,939.75 Q157.9219,939.5 158.1875,939.5 Q158.6563,939.5 158.9531,939.7813 Q159.25,940.0625 159.25,940.7188 L159.25,942.2813 Q159.25,942.9375 158.9688,943.2188 Q158.6875,943.5 158.25,943.5 Q157.8594,943.5 157.6094,943.3281 Q157.3594,943.1563 157.25,942.7031 Q157.2031,942.3906 157.0313,942.2188 Q156.7188,941.8906 156.1563,941.7031 Q155.5938,941.5 155.0313,941.5 Q154.3281,941.5 153.7344,941.7813 Q153.1563,942.0625 152.7031,942.6875 Q152.25,943.3125 152.25,944.1719 L152.25,945.0938 Q152.25,946.125 153.0938,946.8125 Q153.9375,947.5 155.4375,947.5 Q156.3281,947.5 156.9531,947.2969 Q157.3125,947.1875 157.7188,946.8281 Q157.9844,946.625 158.125,946.5625 Q158.2656,946.5 158.4375,946.5 Q158.7656,946.5 159,946.7656 Q159.25,947.0156 159.25,947.375 Q159.25,947.7188 158.9063,948.125 Q158.4063,948.7188 157.6094,949.0469 Q156.5625,949.5 155.2813,949.5 Q153.7813,949.5 152.5781,948.9063 Q151.6094,948.4375 150.9219,947.4219 Q150.25,946.4063 150.25,945.2031 L150.25,944.1094 Q150.25,942.8594 150.8438,941.7656 Q151.4531,940.6719 152.5,940.0938 Q153.5625,939.5 154.75,939.5 Q155.4688,939.5 156.0938,939.75 Q156.7188,940 157.25,940.5 Z "
              fill="#000000"/>
        <text fill="#000000" font-family="sans-serif" font-size="12" lengthAdjust="spacing" textLength="37" x="175.75"
              y="948.9102">Packet
        </text>
        <line style="stroke:#A80036;stroke-width:1.5;" x1="47" x2="309" y1="960" y2="960"/>
        <rect fill="none" height="6" style="stroke:#C82930;stroke-width:1.0;" width="6" x="54" y="968"/>
        <text fill="#000000" font-family="sans-serif" font-size="11" lengthAdjust="spacing" textLength="51" x="66"
              y="975.4189">byte[] data
        </text>
        <rect fill="none" height="6" style="stroke:#C82930;stroke-width:1.0;" width="6" x="54" y="981.8359"/>
        <text fill="#000000" font-family="sans-serif" font-size="11" lengthAdjust="spacing" textLength="102" x="66"
              y="989.2549">InetAddress address
        </text>
        <rect fill="none" height="6" style="stroke:#C82930;stroke-width:1.0;" width="6" x="54" y="995.6719"/>
        <text fill="#000000" font-family="sans-serif" font-size="11" lengthAdjust="spacing" textLength="33" x="66"
              y="1003.0908">int port
        </text>
        <line style="stroke:#A80036;stroke-width:1.5;" x1="47" x2="309" y1="1009.5078" y2="1009.5078"/>
        <ellipse cx="57" cy="1020.5078" fill="#84BE84" rx="3" ry="3" style="stroke:#038048;stroke-width:1.0;"/>
        <text fill="#000000" font-family="sans-serif" font-size="11" lengthAdjust="spacing" textLength="238" x="66"
              y="1024.9268">Packet(byte[] data, InetAddress address, int port)
        </text>
        <ellipse cx="57" cy="1034.3438" fill="#84BE84" rx="3" ry="3" style="stroke:#038048;stroke-width:1.0;"/>
        <text fill="#000000" font-family="sans-serif" font-size="11" lengthAdjust="spacing" textLength="198" x="66"
              y="1038.7627">Packet(DatagramPacket datagramPacket)
        </text>
        <ellipse cx="57" cy="1048.1797" fill="#84BE84" rx="3" ry="3" style="stroke:#038048;stroke-width:1.0;"/>
        <text fill="#000000" font-family="sans-serif" font-size="11" lengthAdjust="spacing" textLength="56" x="66"
              y="1052.5986">int getPort()
        </text>
        <ellipse cx="57" cy="1062.0156" fill="#84BE84" rx="3" ry="3" style="stroke:#038048;stroke-width:1.0;"/>
        <text fill="#000000" font-family="sans-serif" font-size="11" lengthAdjust="spacing" textLength="127" x="66"
              y="1066.4346">InetAddress getAddress()
        </text>
        <ellipse cx="57" cy="1075.8516" fill="#84BE84" rx="3" ry="3" style="stroke:#038048;stroke-width:1.0;"/>
        <text fill="#000000" font-family="sans-serif" font-size="11" lengthAdjust="spacing" textLength="75" x="66"
              y="1080.2705">byte[] getData()
        </text>
        <ellipse cx="57" cy="1089.6875" fill="#84BE84" rx="3" ry="3" style="stroke:#038048;stroke-width:1.0;"/>
        <text fill="#000000" font-family="sans-serif" font-size="11" lengthAdjust="spacing" textLength="76" x="66"
              y="1094.1064">String toString()
        </text>
        <ellipse cx="57" cy="1103.5234" fill="#84BE84" rx="3" ry="3" style="stroke:#038048;stroke-width:1.0;"/>
        <text fill="#000000" font-family="sans-serif" font-size="11" lengthAdjust="spacing" textLength="121" x="66"
              y="1107.9424">boolean equals(Object o)
        </text>
        <ellipse cx="57" cy="1117.3594" fill="#84BE84" rx="3" ry="3" style="stroke:#038048;stroke-width:1.0;"/>
        <text fill="#000000" font-family="sans-serif" font-size="11" lengthAdjust="spacing" textLength="71" x="66"
              y="1121.7783">int hashCode()
        </text><!--MD5=[a33c7f85426c28ff4365f0118c2ee2d7]
link actor.intermediate.Main to actor.intermediate.Backend-->
        <path codeLine="55"
              d="M403.46,118.05 C421.93,138.99 442.28,166.78 452,196 C505.65,357.32 435.48,553.39 383.23,665.39 "
              fill="none" id="actor.intermediate.Main-to-actor.intermediate.Backend"
              style="stroke:#A80036;stroke-width:1.0;stroke-dasharray:7.0,7.0;"/>
        <polygon fill="#A80036" points="381.07,670,388.5018,663.5372,383.1852,665.4694,381.2529,660.1528,381.07,670"
                 style="stroke:#A80036;stroke-width:1.0;"/>
        <text fill="#000000" font-family="sans-serif" font-size="13" lengthAdjust="spacing" textLength="50" x="466"
              y="413.4951">«create»
        </text><!--MD5=[7ce481ee4dc66edb42395d35b27c1520]
link actor.intermediate.Main to actor.intermediate.LoadBalancer-->
        <path codeLine="56"
              d="M285.73,89.61 C219.24,101.45 128.68,129.52 84,196 C41.11,259.81 53.82,298.28 84,369 C95.83,396.72 115.6,421.77 137.17,443.09 "
              fill="none" id="actor.intermediate.Main-to-actor.intermediate.LoadBalancer"
              style="stroke:#A80036;stroke-width:1.0;stroke-dasharray:7.0,7.0;"/>
        <polygon fill="#A80036" points="140.93,446.76,137.2835,437.611,137.352,443.2675,131.6955,443.3359,140.93,446.76"
                 style="stroke:#A80036;stroke-width:1.0;"/>
        <text fill="#000000" font-family="sans-serif" font-size="13" lengthAdjust="spacing" textLength="50" x="85"
              y="287.9951">«create»
        </text><!--MD5=[7d3a21c326136c768e35809a613dc5e9]
link actor.intermediate.Main to actor.intermediate.Frontend-->
        <path codeLine="57" d="M352.63,118.24 C345.24,138.82 335.71,165.35 326.49,191.02 " fill="none"
              id="actor.intermediate.Main-to-actor.intermediate.Frontend"
              style="stroke:#A80036;stroke-width:1.0;stroke-dasharray:7.0,7.0;"/>
        <polygon fill="#A80036" points="324.77,195.8,331.5927,188.6972,326.4707,191.0981,324.0697,185.9761,324.77,195.8"
                 style="stroke:#A80036;stroke-width:1.0;"/>
        <text fill="#000000" font-family="sans-serif" font-size="13" lengthAdjust="spacing" textLength="50" x="341"
              y="162.4951">«create»
        </text><!--MD5=[bdc720f39dd191d500b00de621c3b7b5]
link actor.intermediate.Main to util.Config-->
        <path codeLine="60"
              d="M446.12,116.02 C507.59,148.92 582,204.62 582,281.5 C582,281.5 582,281.5 582,757.5 C582,831.32 551.8,911.14 526.78,964.59 "
              fill="none" id="actor.intermediate.Main-to-util.Config"
              style="stroke:#A80036;stroke-width:1.0;stroke-dasharray:7.0,7.0;"/>
        <polygon fill="#A80036"
                 points="524.53,969.36,531.9951,962.9357,526.6686,964.8404,524.7638,959.5139,524.53,969.36"
                 style="stroke:#A80036;stroke-width:1.0;"/>
        <text fill="#000000" font-family="sans-serif" font-size="13" lengthAdjust="spacing" textLength="107" x="583"
              y="524.9951">«create» (optional)
        </text><!--MD5=[2fed928c7cac7eabb67d106de165667e]
link actor.intermediate.Frontend to model.Packet-->
        <path codeLine="61"
              d="M169.63,369.04 C146.25,391.48 125.06,417.71 112,447 C42.8,602.2 92.56,802.91 135.14,922.94 "
              fill="none" id="actor.intermediate.Frontend-to-model.Packet"
              style="stroke:#A80036;stroke-width:1.0;stroke-dasharray:7.0,7.0;"/>
        <polygon fill="#A80036" points="136.9,927.88,137.6626,918.0607,135.2292,923.1674,130.1225,920.734,136.9,927.88"
                 style="stroke:#A80036;stroke-width:1.0;"/>
        <text fill="#000000" font-family="sans-serif" font-size="13" lengthAdjust="spacing" textLength="50" x="79"
              y="636.4951">«create»
        </text><!--MD5=[e1e617bbfbb923c764b8caaf27adaf93]
reverse link actor.intermediate.Backend to util.Config-->
        <path codeLine="63" d="M392.8,854.39 C415.36,892.87 440.55,935.83 460.15,969.26 " fill="none"
              id="actor.intermediate.Backend-backto-util.Config" style="stroke:#A80036;stroke-width:1.0;"/>
        <polygon fill="#A80036"
                 points="386.21,843.14,385.7923,850.339,392.2769,853.4934,392.6946,846.2944,386.21,843.14"
                 style="stroke:#A80036;stroke-width:1.0;"/>
        <text fill="#000000" font-family="sans-serif" font-size="13" lengthAdjust="spacing" textLength="7" x="382.7862"
              y="863.9127">1
        </text>
        <text fill="#000000" font-family="sans-serif" font-size="13" lengthAdjust="spacing" textLength="7" x="448.598"
              y="958.6317">1
        </text><!--MD5=[8858c7cc1cfa15908f9adbff1a2dab02]
reverse link actor.intermediate.Frontend to util.Config-->
        <path codeLine="64"
              d="M444.03,363.25 C454.94,373.96 464.56,385.86 472,399 C577.07,584.6 534.49,852.97 508.5,969.45 "
              fill="none" id="actor.intermediate.Frontend-backto-util.Config" style="stroke:#A80036;stroke-width:1.0;"/>
        <polygon fill="#A80036"
                 points="434.13,354.15,435.8396,361.1555,442.9638,362.2718,441.2542,355.2663,434.13,354.15"
                 style="stroke:#A80036;stroke-width:1.0;"/>
        <text fill="#000000" font-family="sans-serif" font-size="13" lengthAdjust="spacing" textLength="7" x="441.9848"
              y="355.1486">1
        </text>
        <text fill="#000000" font-family="sans-serif" font-size="13" lengthAdjust="spacing" textLength="7" x="502.8406"
              y="958.8448">1
        </text><!--MD5=[2ad3aa4b8f3800ef889f96cfa30d7887]
reverse link actor.intermediate.Frontend to actor.intermediate.LoadBalancer-->
        <path codeLine="66" d="M271.42,381.75 C266.4,403.63 261.16,426.41 256.44,446.97 " fill="none"
              id="actor.intermediate.Frontend-backto-actor.intermediate.LoadBalancer"
              style="stroke:#A80036;stroke-width:1.0;"/>
        <polygon fill="#A80036"
                 points="274.35,369.01,269.1123,373.9664,271.6729,380.7076,276.9106,375.7512,274.35,369.01"
                 style="stroke:#A80036;stroke-width:1.0;"/>
        <text fill="#000000" font-family="sans-serif" font-size="13" lengthAdjust="spacing" textLength="7" x="265.5052"
              y="390.0694">1
        </text>
        <text fill="#000000" font-family="sans-serif" font-size="13" lengthAdjust="spacing" textLength="7" x="250.7744"
              y="436.1862">1
        </text><!--MD5=[6b7753239ff497e132d4e5aa5d33fb65]
reverse link actor.intermediate.LoadBalancer to actor.intermediate.Backend-->
        <path codeLine="67" d="M274.33,604.54 C282.98,625.7 292.27,648.44 300.94,669.69 " fill="none"
              id="actor.intermediate.LoadBalancer-backto-actor.intermediate.Backend"
              style="stroke:#A80036;stroke-width:1.0;"/>
        <polygon fill="#A80036"
                 points="269.32,592.28,267.8863,599.3472,273.8585,603.3887,275.2921,596.3215,269.32,592.28"
                 style="stroke:#A80036;stroke-width:1.0;"/>
        <text fill="#000000" font-family="sans-serif" font-size="13" lengthAdjust="spacing" textLength="7" x="264.7003"
              y="613.2451">1
        </text>
        <text fill="#000000" font-family="sans-serif" font-size="13" lengthAdjust="spacing" textLength="5" x="292.7122"
              y="659.073">*
        </text><!--MD5=[13ce733014564d8b878731c3d565f89c]
reverse link actor.intermediate.LoadBalancer to model.Packet-->
        <path codeLine="69"
              d="M224.19,605.14 C220.55,626.27 216.89,648.93 214,670 C202.08,756.86 192.39,856.13 186.07,927.9 "
              fill="none" id="actor.intermediate.LoadBalancer-backto-model.Packet"
              style="stroke:#A80036;stroke-width:1.0;"/>
        <polygon fill="#A80036" points="226.46,592.2,221.4855,597.4205,224.3911,604.0203,229.3657,598.7998,226.46,592.2"
                 style="stroke:#A80036;stroke-width:1.0;"/>
        <text fill="#000000" font-family="sans-serif" font-size="13" lengthAdjust="spacing" textLength="7" x="217.8359"
              y="613.4107">1
        </text>
        <text fill="#000000" font-family="sans-serif" font-size="13" lengthAdjust="spacing" textLength="5" x="181.4965"
              y="917.1247">*
        </text><!--MD5=[790a692c61e6fb01c7d2046a93f3fe75]
reverse link actor.intermediate.Backend to model.Packet-->
        <path codeLine="70" d="M279.21,854.36 C265.19,878.28 250.15,903.93 236.07,927.95 " fill="none"
              id="actor.intermediate.Backend-backto-model.Packet" style="stroke:#A80036;stroke-width:1.0;"/>
        <polygon fill="#A80036"
                 points="285.79,843.14,279.3054,846.2944,279.7231,853.4934,286.2077,850.339,285.79,843.14"
                 style="stroke:#A80036;stroke-width:1.0;"/>
        <text fill="#000000" font-family="sans-serif" font-size="13" lengthAdjust="spacing" textLength="7" x="274.6778"
              y="863.9127">1
        </text>
        <text fill="#000000" font-family="sans-serif" font-size="13" lengthAdjust="spacing" textLength="5" x="235.3246"
              y="917.1785">*
        </text><!--MD5=[571b857d14198f5ece218bbee46ad440]
@startuml
'https://plantuml.com/class-diagram

!include class_diagram_config.puml

class actor.intermediate.Backend{
 - int backendId
 - Config config
 - SynchronousQueue<Packet> packets
 - Logger logger
 - boolean run
 + Backend(int backendId, Config config)
 + void handle(Packet packet)
 + void shutdown()
 + void run()
}
class actor.intermediate.LoadBalancer{
 - LinkedBlockingQueue<Packet> packets
 - Queue<Backend> backends
 - boolean run
 + LoadBalancer(Set<Backend> backends)
 + void add(Packet packet)
 + void shutdown()
 + void run()
}
class actor.intermediate.Frontend{
 - Config config
 - Logger logger
 - LoadBalancer loadBalancer
 - int port
 - boolean run
 + Frontend(Config config, LoadBalancer loadBalancer)
 + void shutdown()
 + int getPort()
 + void run()
}
class actor.intermediate.Main{
 {static} + Frontend run(Config config)
 {static} + void main(String[] args)
}

class model.Packet{
 - byte[] data
 - InetAddress address
 - int port
 + Packet(byte[] data, InetAddress address, int port)
 + Packet(DatagramPacket datagramPacket)
 + int getPort()
 + InetAddress getAddress()
 + byte[] getData()
 + String toString()
 + boolean equals(Object o)
 + int hashCode()
}

actor.intermediate.Main ..> actor.intermediate.Backend: "<<create>>"
actor.intermediate.Main ..> actor.intermediate.LoadBalancer: "<<create>>"
actor.intermediate.Main ..> actor.intermediate.Frontend: "<<create>>"


actor.intermediate.Main ..> util.Config: "<<create>> (optional)"
actor.intermediate.Frontend ..> model.Packet: "<<create>>"

actor.intermediate.Backend "1" *- - "1" util.Config
actor.intermediate.Frontend "1" *- - "1" util.Config

actor.intermediate.Frontend "1" *- - "1" actor.intermediate.LoadBalancer
actor.intermediate.LoadBalancer "1" *- - "*" actor.intermediate.Backend

actor.intermediate.LoadBalancer "1" *- - "*" model.Packet
actor.intermediate.Backend "1" *- - "*" model.Packet

@enduml

@startuml

class util.Config{
 {static} - String CONFIG_FILE_NAME
 - Properties properties
 + Config()
 + String getProperty(String key)
 + int getIntProperty(String key
}

class actor.intermediate.Backend{
 - int backendId
 - Config config
 - SynchronousQueue<Packet> packets
 - Logger logger
 - boolean run
 + Backend(int backendId, Config config)
 + void handle(Packet packet)
 + void shutdown()
 + void run()
}
class actor.intermediate.LoadBalancer{
 - LinkedBlockingQueue<Packet> packets
 - Queue<Backend> backends
 - boolean run
 + LoadBalancer(Set<Backend> backends)
 + void add(Packet packet)
 + void shutdown()
 + void run()
}
class actor.intermediate.Frontend{
 - Config config
 - Logger logger
 - LoadBalancer loadBalancer
 - int port
 - boolean run
 + Frontend(Config config, LoadBalancer loadBalancer)
 + void shutdown()
 + int getPort()
 + void run()
}
class actor.intermediate.Main{
 {static} + Frontend run(Config config)
 {static} + void main(String[] args)
}

class model.Packet{
 - byte[] data
 - InetAddress address
 - int port
 + Packet(byte[] data, InetAddress address, int port)
 + Packet(DatagramPacket datagramPacket)
 + int getPort()
 + InetAddress getAddress()
 + byte[] getData()
 + String toString()
 + boolean equals(Object o)
 + int hashCode()
}

actor.intermediate.Main ..> actor.intermediate.Backend: "<<create>>"
actor.intermediate.Main ..> actor.intermediate.LoadBalancer: "<<create>>"
actor.intermediate.Main ..> actor.intermediate.Frontend: "<<create>>"


actor.intermediate.Main ..> util.Config: "<<create>> (optional)"
actor.intermediate.Frontend ..> model.Packet: "<<create>>"

actor.intermediate.Backend "1" *- - "1" util.Config
actor.intermediate.Frontend "1" *- - "1" util.Config

actor.intermediate.Frontend "1" *- - "1" actor.intermediate.LoadBalancer
actor.intermediate.LoadBalancer "1" *- - "*" actor.intermediate.Backend

actor.intermediate.LoadBalancer "1" *- - "*" model.Packet
actor.intermediate.Backend "1" *- - "*" model.Packet

@enduml

PlantUML version 1.2021.01(Tue Feb 02 02:55:08 EST 2021)
(GPL source distribution)
Java Runtime: OpenJDK Runtime Environment
JVM: OpenJDK 64-Bit Server VM
Default Encoding: Cp1252
Language: en
Country: US
-->
    </g>
</svg>